<?xml version="1.0" encoding="UTF-8" standalone="no"?>
<!-- Created with Inkscape (http://www.inkscape.org/) -->

<svg
   xmlns:dc="http://purl.org/dc/elements/1.1/"
   xmlns:cc="http://creativecommons.org/ns#"
   xmlns:rdf="http://www.w3.org/1999/02/22-rdf-syntax-ns#"
   xmlns:svg="http://www.w3.org/2000/svg"
   xmlns="http://www.w3.org/2000/svg"
   xmlns:xlink="http://www.w3.org/1999/xlink"
   xmlns:sodipodi="http://sodipodi.sourceforge.net/DTD/sodipodi-0.dtd"
   xmlns:inkscape="http://www.inkscape.org/namespaces/inkscape"
   width="210mm"
   height="297mm"
   viewBox="0 0 210 297"
   version="1.1"
   id="svg8"
   sodipodi:docname="encircled-ryman-gradient.svg"
   inkscape:version="0.92.4 5da689c313, 2019-01-14">
  <defs
     id="defs2">
    <linearGradient
       id="linearGradient1103"
       inkscape:collect="always">
      <stop
         id="stop1097"
         offset="0"
         style="stop-color:#5589e6;stop-opacity:0.99215686" />
      <stop
         style="stop-color:#cd62df;stop-opacity:0.99607843"
         offset="0.51190299"
         id="stop1099" />
      <stop
         id="stop1101"
         offset="1"
         style="stop-color:#ffc975;stop-opacity:1" />
    </linearGradient>
    <linearGradient
       inkscape:collect="always"
       id="linearGradient971">
      <stop
         style="stop-color:#143d86;stop-opacity:0.99215686"
         offset="0"
         id="stop965" />
      <stop
         id="stop967"
         offset="0.51190299"
         style="stop-color:#a225b7;stop-opacity:0.99607843" />
      <stop
         style="stop-color:#ffa005;stop-opacity:1"
         offset="1"
         id="stop969" />
    </linearGradient>
    <linearGradient
       id="linearGradient922"
       inkscape:collect="always">
      <stop
         id="stop916"
         offset="0"
         style="stop-color:#143d86;stop-opacity:0.99215686" />
      <stop
         style="stop-color:#a225b7;stop-opacity:0.99607843"
         offset="0.5"
         id="stop918" />
      <stop
         id="stop920"
         offset="1"
         style="stop-color:#ffa005;stop-opacity:1" />
    </linearGradient>
    <linearGradient
       inkscape:collect="always"
       id="linearGradient1619">
      <stop
         style="stop-color:#18469b;stop-opacity:0.99215686"
         offset="0"
         id="stop1613" />
      <stop
         id="stop1615"
         offset="0.5"
         style="stop-color:#ae28c5;stop-opacity:0.99607843" />
      <stop
         style="stop-color:#f4b840;stop-opacity:1"
         offset="1"
         id="stop1617" />
    </linearGradient>
    <linearGradient
       id="linearGradient1599"
       inkscape:collect="always">
      <stop
         id="stop1593"
         offset="0"
         style="stop-color:#9dbeff;stop-opacity:0.99215686" />
      <stop
         style="stop-color:#e63fff;stop-opacity:1"
         offset="0.5"
         id="stop1595" />
      <stop
         id="stop1597"
         offset="1"
         style="stop-color:#ffe6ad;stop-opacity:1" />
    </linearGradient>
    <linearGradient
       inkscape:collect="always"
       id="linearGradient1004">
      <stop
         style="stop-color:#9ab0da;stop-opacity:0.99215686"
         offset="0"
         id="stop998" />
      <stop
         id="stop1000"
         offset="0.5"
         style="stop-color:#c35ad4;stop-opacity:0.99607843" />
      <stop
         style="stop-color:#ffe8b5;stop-opacity:1"
         offset="1"
         id="stop1002" />
    </linearGradient>
    <linearGradient
       id="linearGradient979"
       inkscape:collect="always">
      <stop
         id="stop975"
         offset="0"
         style="stop-color:#426ab4;stop-opacity:0.99215686" />
      <stop
         style="stop-color:#b370be;stop-opacity:0.99607843"
         offset="0.5"
         id="stop990" />
      <stop
         id="stop977"
         offset="1"
         style="stop-color:#f2c872;stop-opacity:1" />
    </linearGradient>
    <linearGradient
       inkscape:collect="always"
       id="linearGradient829">
      <stop
         style="stop-color:#3400bc;stop-opacity:0.990991"
         offset="0"
         id="stop825" />
      <stop
         style="stop-color:#f2c872;stop-opacity:1"
         offset="1"
         id="stop827" />
    </linearGradient>
    <linearGradient
       inkscape:collect="always"
       xlink:href="#linearGradient829"
       id="linearGradient831"
       x1="-197.87813"
       y1="288.58395"
       x2="-193.55925"
       y2="299.26785"
       gradientUnits="userSpaceOnUse"
       spreadMethod="pad" />
    <linearGradient
       inkscape:collect="always"
       xlink:href="#linearGradient829"
       id="linearGradient847"
       gradientUnits="userSpaceOnUse"
       x1="-197.87813"
       y1="288.58395"
       x2="-193.55925"
       y2="299.26785"
       spreadMethod="pad"
       gradientTransform="translate(32.6737)" />
    <linearGradient
       inkscape:collect="always"
       xlink:href="#linearGradient829"
       id="linearGradient857"
       gradientUnits="userSpaceOnUse"
       gradientTransform="translate(61.271539)"
       x1="-197.87813"
       y1="288.58395"
       x2="-193.55925"
       y2="299.26785"
       spreadMethod="pad" />
    <linearGradient
       inkscape:collect="always"
       xlink:href="#linearGradient829"
       id="linearGradient921"
       gradientUnits="userSpaceOnUse"
       gradientTransform="matrix(0.99221561,0,0,0.99221561,93.802609,0.88334764)"
       x1="-197.87813"
       y1="288.58395"
       x2="-193.55925"
       y2="299.26785"
       spreadMethod="pad" />
    <mask
       maskUnits="userSpaceOnUse"
       id="mask961">
      <g
         aria-label="OSC"
         style="font-style:normal;font-variant:normal;font-weight:normal;font-stretch:normal;font-size:10.58333302px;line-height:1.25;font-family:'Latin Modern Roman';-inkscape-font-specification:'Latin Modern Roman, ';letter-spacing:0px;word-spacing:0px;fill:#ffffff;fill-opacity:1;stroke:none;stroke-width:0.26458332"
         id="g967"
         transform="translate(33.858578,-2.2458437)">
        <g
           id="g965"
           transform="translate(-5.87371,1.04775)"
           style="fill:#ffffff">
          <path
             id="path963"
             style="font-style:normal;font-variant:normal;font-weight:bold;font-stretch:normal;font-family:'Ryman Eco';-inkscape-font-specification:'Ryman Eco';fill:#ffffff;stroke-width:0.26458332"
             d="m -122.61618,291.04082 c -1.89442,0 -3.18558,1.48167 -3.18558,3.73592 0,2.33892 1.35466,3.81 3.302,3.81 1.29116,0 1.92616,-0.55033 2.67758,-1.397 -0.0318,-0.0212 -0.11642,-0.127 -0.14817,-0.15875 -0.8255,0.96308 -1.397,1.34408 -2.51883,1.34408 -1.98967,0 -3.03742,-1.62983 -3.03742,-3.58775 0,-1.80975 0.94192,-3.53483 2.86809,-3.53483 1.10066,0 1.905,0.56092 2.18016,1.48167 l 0.0317,-0.0106 v -1.5875 h -0.254 l 0.0741,0.86784 c -0.40217,-0.60325 -1.05834,-0.96309 -1.98967,-0.96309 z m 2.18017,2.52942 c -0.14817,-1.13242 -0.83609,-2.14842 -2.26484,-2.14842 -1.651,0 -2.63525,1.3335 -2.63525,3.302 0,1.27 0.45509,2.6035 1.57692,3.21734 -0.91017,-0.68792 -1.34408,-2.00025 -1.34408,-3.15384 0,-1.74625 0.8255,-3.15383 2.38125,-3.15383 1.34408,0 1.9685,0.87842 2.13783,2.08492 z m -3.22792,-1.60867 c -0.78317,0.41275 -1.24883,1.57692 -1.24883,2.88925 0,1.92617 1.03716,3.35492 2.54,3.35492 1.04775,0 1.60866,-0.62442 2.24366,-1.32292 -0.0318,-0.0212 -0.127,-0.127 -0.15875,-0.15875 -0.59266,0.71967 -1.04775,1.27 -2.032,1.27 -1.47108,0 -2.32833,-1.4605 -2.32833,-3.21733 0,-1.10067 0.3175,-2.18017 0.98425,-2.81517 z m 3.59833,1.19592 v -2.02142 h -0.21166 v 2.27542 z m -7.29189,0.37042 c -0.127,-1.0795 -0.77259,-2.10609 -2.159,-2.10609 -0.85725,0 -1.70392,0.4445 -1.70392,1.524 0,1.22767 1.11125,1.48167 2.032,1.78859 0.93133,0.29633 1.79917,0.67733 1.79917,1.75683 0,0.89958 -0.59267,1.50283 -1.67217,1.50283 -1.27,0 -2.00025,-0.83608 -2.159,-2.032 l -0.13758,0.13759 c 0.14816,1.11125 0.889,2.10608 2.3495,2.10608 1.25941,0 1.87325,-0.762 1.87325,-1.73567 0,-1.21708 -0.9525,-1.62983 -1.92617,-1.92616 -1.00542,-0.3175 -1.905,-0.60325 -1.905,-1.62984 0,-0.9525 0.77258,-1.28058 1.47108,-1.28058 1.19592,0 1.85209,0.84667 1.98967,2.04258 z m -1.651,0.84666 c 1.02658,0.27517 2.0955,0.77259 2.0955,2.04259 0,0.97366 -0.635,1.95791 -2.14842,1.95791 -1.13242,0 -1.92617,-0.53975 -2.2225,-1.48166 h -0.0212 v 1.55575 h 0.254 l -0.0741,-0.78317 h 0.0212 c 0.26458,0.49742 0.87841,0.92075 1.97908,0.92075 1.59808,0 2.46592,-0.889 2.46592,-2.18017 0,-1.4605 -1.10067,-1.89441 -2.19075,-2.2225 -1.06892,-0.3175 -1.68275,-0.508 -1.68275,-1.34408 0,-0.30692 0.0952,-0.64558 0.23283,-0.85725 -0.29633,0.1905 -0.47625,0.508 -0.47625,0.91017 0,0.99483 1.05833,1.29116 1.76742,1.48166 z m 1.16416,2.16959 c 0,0.32808 -0.0953,0.83608 -0.35983,1.09008 0.37042,-0.254 0.61383,-0.6985 0.61383,-1.16417 0,-0.92075 -0.87841,-1.31233 -1.778,-1.60866 -0.86783,-0.27517 -2.04258,-0.5715 -2.04258,-1.86267 0,-1.02658 0.71967,-1.74625 1.89442,-1.74625 1.0795,0 1.80975,0.53975 2.07433,1.48167 l 0.0317,-0.0106 v -1.5875 h -0.24342 l 0.0741,0.8255 h -0.0212 c -0.24342,-0.46566 -0.78317,-0.92075 -1.86267,-0.92075 -1.24883,0 -2.20133,0.65617 -2.20133,1.9685 0,1.3335 0.98425,1.67217 2.18017,2.08492 1.06891,0.39158 1.64041,0.64558 1.64041,1.44992 z m -3.84175,-0.0741 v 1.97909 h 0.21167 v -2.23309 z m 4.65667,-3.31258 v -2.02142 h -0.21167 v 2.27542 z m -6.02191,1.68276 c 0,-1.27 -0.52916,-2.57175 -1.59808,-3.15383 0.94192,0.71966 1.34408,2.06375 1.34408,3.10091 0,1.74625 -0.83608,3.20675 -2.40241,3.20675 -1.54517,0 -2.37067,-1.47108 -2.37067,-3.19616 0,-1.12184 0.34925,-2.20134 1.0795,-2.83634 -0.8255,0.39159 -1.34408,1.51342 -1.34408,2.89984 0,1.95791 1.05833,3.34433 2.63525,3.34433 1.64041,0 2.65641,-1.40758 2.65641,-3.3655 z m -2.86808,-3.79942 c -2.00025,0 -3.31258,1.48167 -3.31258,3.7465 0,2.30717 1.35466,3.79942 3.31258,3.79942 2.02142,0 3.32317,-1.48167 3.32317,-3.79942 0,-2.2225 -1.3335,-3.7465 -3.32317,-3.7465 z m 0,7.33425 c -1.98967,0 -3.03742,-1.64041 -3.03742,-3.58775 0,-1.82033 0.94192,-3.53483 3.03742,-3.53483 2.0955,0 3.048,1.76742 3.048,3.54542 0,1.9685 -1.02658,3.57716 -3.048,3.57716 z m -2.8575,-3.66183 c 0,1.28058 0.47625,2.62467 1.59808,3.22792 -0.93133,-0.67734 -1.34408,-2.00025 -1.34408,-3.16442 0,-1.73567 0.86783,-3.14325 2.40242,-3.14325 1.53458,0 2.37066,1.44992 2.37066,3.12208 0,1.06892 -0.28575,2.2225 -1.09008,2.91042 0.91017,-0.42333 1.35467,-1.651 1.35467,-2.96333 0,-1.83092 -1.02659,-3.28084 -2.63525,-3.28084 -1.57692,0 -2.65642,1.34409 -2.65642,3.29142 z m 9.25077,-10.7433 c -5.98754,0 -10.84375,4.85621 -10.84375,10.84375 0,5.98753 4.85621,10.84375 10.84375,10.84375 5.98753,-1e-5 10.84179,-4.85622 10.84179,-10.84375 0,-5.98753 -4.85426,-10.84375 -10.84179,-10.84375 z m 0,0.18554 c 5.88764,10e-6 10.6582,4.77056 10.6582,10.65821 0,5.88764 -4.77056,10.6582 -10.6582,10.6582 -5.88765,0 -10.66016,-4.77055 -10.66016,-10.6582 0,-5.88765 4.77251,-10.65821 10.66016,-10.65821 z"
             inkscape:connector-curvature="0" />
        </g>
      </g>
    </mask>
    <linearGradient
       inkscape:collect="always"
       xlink:href="#linearGradient979"
       id="linearGradient973"
       gradientUnits="userSpaceOnUse"
       gradientTransform="matrix(0.99221561,0,0,0.99221561,93.802609,0.88334764)"
       x1="-201.04318"
       y1="289.96445"
       x2="-193.52557"
       y2="299.94125"
       spreadMethod="pad" />
    <linearGradient
       inkscape:collect="always"
       xlink:href="#linearGradient1004"
       id="linearGradient996"
       gradientUnits="userSpaceOnUse"
       gradientTransform="matrix(0.99221561,0,0,0.99221561,93.802609,0.88334764)"
       x1="-201.04318"
       y1="289.96445"
       x2="-193.52557"
       y2="299.94125"
       spreadMethod="pad" />
    <linearGradient
       inkscape:collect="always"
       xlink:href="#linearGradient1004"
       id="linearGradient1156"
       gradientUnits="userSpaceOnUse"
       gradientTransform="matrix(0.99221561,0,0,0.99221561,93.802609,0.88334764)"
       x1="-201.04318"
       y1="289.96445"
       x2="-193.52557"
       y2="299.94125"
       spreadMethod="pad" />
    <filter
       inkscape:collect="always"
       style="color-interpolation-filters:sRGB"
       id="filter1452"
       x="-0.014400651"
       width="1.0288013"
       y="-0.014399349"
       height="1.0287987">
      <feGaussianBlur
         inkscape:collect="always"
         stdDeviation="0.13011912"
         id="feGaussianBlur1454" />
    </filter>
    <mask
       maskUnits="userSpaceOnUse"
       id="mask1464">
      <g
         transform="translate(33.858577,-2.2458437)"
         id="g1470"
         style="font-style:normal;font-variant:normal;font-weight:normal;font-stretch:normal;font-size:10.58333302px;line-height:1.25;font-family:'Latin Modern Roman';-inkscape-font-specification:'Latin Modern Roman, ';letter-spacing:0px;word-spacing:0px;fill:#ffffff;fill-opacity:1;stroke:none;stroke-width:0.26458332;filter:url(#filter1452)"
         aria-label="OSC">
        <g
           style="fill:#ffffff"
           transform="translate(-5.87371,1.04775)"
           id="g1468">
          <path
             inkscape:connector-curvature="0"
             d="m -122.61618,291.04082 c -1.89442,0 -3.18558,1.48167 -3.18558,3.73592 0,2.33892 1.35466,3.81 3.302,3.81 1.29116,0 1.92616,-0.55033 2.67758,-1.397 -0.0318,-0.0212 -0.11642,-0.127 -0.14817,-0.15875 -0.8255,0.96308 -1.397,1.34408 -2.51883,1.34408 -1.98967,0 -3.03742,-1.62983 -3.03742,-3.58775 0,-1.80975 0.94192,-3.53483 2.86809,-3.53483 1.10066,0 1.905,0.56092 2.18016,1.48167 l 0.0317,-0.0106 v -1.5875 h -0.254 l 0.0741,0.86784 c -0.40217,-0.60325 -1.05834,-0.96309 -1.98967,-0.96309 z m 2.18017,2.52942 c -0.14817,-1.13242 -0.83609,-2.14842 -2.26484,-2.14842 -1.651,0 -2.63525,1.3335 -2.63525,3.302 0,1.27 0.45509,2.6035 1.57692,3.21734 -0.91017,-0.68792 -1.34408,-2.00025 -1.34408,-3.15384 0,-1.74625 0.8255,-3.15383 2.38125,-3.15383 1.34408,0 1.9685,0.87842 2.13783,2.08492 z m -3.22792,-1.60867 c -0.78317,0.41275 -1.24883,1.57692 -1.24883,2.88925 0,1.92617 1.03716,3.35492 2.54,3.35492 1.04775,0 1.60866,-0.62442 2.24366,-1.32292 -0.0318,-0.0212 -0.127,-0.127 -0.15875,-0.15875 -0.59266,0.71967 -1.04775,1.27 -2.032,1.27 -1.47108,0 -2.32833,-1.4605 -2.32833,-3.21733 0,-1.10067 0.3175,-2.18017 0.98425,-2.81517 z m 3.59833,1.19592 v -2.02142 h -0.21166 v 2.27542 z m -7.29189,0.37042 c -0.127,-1.0795 -0.77259,-2.10609 -2.159,-2.10609 -0.85725,0 -1.70392,0.4445 -1.70392,1.524 0,1.22767 1.11125,1.48167 2.032,1.78859 0.93133,0.29633 1.79917,0.67733 1.79917,1.75683 0,0.89958 -0.59267,1.50283 -1.67217,1.50283 -1.27,0 -2.00025,-0.83608 -2.159,-2.032 l -0.13758,0.13759 c 0.14816,1.11125 0.889,2.10608 2.3495,2.10608 1.25941,0 1.87325,-0.762 1.87325,-1.73567 0,-1.21708 -0.9525,-1.62983 -1.92617,-1.92616 -1.00542,-0.3175 -1.905,-0.60325 -1.905,-1.62984 0,-0.9525 0.77258,-1.28058 1.47108,-1.28058 1.19592,0 1.85209,0.84667 1.98967,2.04258 z m -1.651,0.84666 c 1.02658,0.27517 2.0955,0.77259 2.0955,2.04259 0,0.97366 -0.635,1.95791 -2.14842,1.95791 -1.13242,0 -1.92617,-0.53975 -2.2225,-1.48166 h -0.0212 v 1.55575 h 0.254 l -0.0741,-0.78317 h 0.0212 c 0.26458,0.49742 0.87841,0.92075 1.97908,0.92075 1.59808,0 2.46592,-0.889 2.46592,-2.18017 0,-1.4605 -1.10067,-1.89441 -2.19075,-2.2225 -1.06892,-0.3175 -1.68275,-0.508 -1.68275,-1.34408 0,-0.30692 0.0952,-0.64558 0.23283,-0.85725 -0.29633,0.1905 -0.47625,0.508 -0.47625,0.91017 0,0.99483 1.05833,1.29116 1.76742,1.48166 z m 1.16416,2.16959 c 0,0.32808 -0.0953,0.83608 -0.35983,1.09008 0.37042,-0.254 0.61383,-0.6985 0.61383,-1.16417 0,-0.92075 -0.87841,-1.31233 -1.778,-1.60866 -0.86783,-0.27517 -2.04258,-0.5715 -2.04258,-1.86267 0,-1.02658 0.71967,-1.74625 1.89442,-1.74625 1.0795,0 1.80975,0.53975 2.07433,1.48167 l 0.0317,-0.0106 v -1.5875 h -0.24342 l 0.0741,0.8255 h -0.0212 c -0.24342,-0.46566 -0.78317,-0.92075 -1.86267,-0.92075 -1.24883,0 -2.20133,0.65617 -2.20133,1.9685 0,1.3335 0.98425,1.67217 2.18017,2.08492 1.06891,0.39158 1.64041,0.64558 1.64041,1.44992 z m -3.84175,-0.0741 v 1.97909 h 0.21167 v -2.23309 z m 4.65667,-3.31258 v -2.02142 h -0.21167 v 2.27542 z m -6.02191,1.68276 c 0,-1.27 -0.52916,-2.57175 -1.59808,-3.15383 0.94192,0.71966 1.34408,2.06375 1.34408,3.10091 0,1.74625 -0.83608,3.20675 -2.40241,3.20675 -1.54517,0 -2.37067,-1.47108 -2.37067,-3.19616 0,-1.12184 0.34925,-2.20134 1.0795,-2.83634 -0.8255,0.39159 -1.34408,1.51342 -1.34408,2.89984 0,1.95791 1.05833,3.34433 2.63525,3.34433 1.64041,0 2.65641,-1.40758 2.65641,-3.3655 z m -2.86808,-3.79942 c -2.00025,0 -3.31258,1.48167 -3.31258,3.7465 0,2.30717 1.35466,3.79942 3.31258,3.79942 2.02142,0 3.32317,-1.48167 3.32317,-3.79942 0,-2.2225 -1.3335,-3.7465 -3.32317,-3.7465 z m 0,7.33425 c -1.98967,0 -3.03742,-1.64041 -3.03742,-3.58775 0,-1.82033 0.94192,-3.53483 3.03742,-3.53483 2.0955,0 3.048,1.76742 3.048,3.54542 0,1.9685 -1.02658,3.57716 -3.048,3.57716 z m -2.8575,-3.66183 c 0,1.28058 0.47625,2.62467 1.59808,3.22792 -0.93133,-0.67734 -1.34408,-2.00025 -1.34408,-3.16442 0,-1.73567 0.86783,-3.14325 2.40242,-3.14325 1.53458,0 2.37066,1.44992 2.37066,3.12208 0,1.06892 -0.28575,2.2225 -1.09008,2.91042 0.91017,-0.42333 1.35467,-1.651 1.35467,-2.96333 0,-1.83092 -1.02659,-3.28084 -2.63525,-3.28084 -1.57692,0 -2.65642,1.34409 -2.65642,3.29142 z m 9.25077,-10.7433 c -5.98754,0 -10.84375,4.85621 -10.84375,10.84375 0,5.98753 4.85621,10.84375 10.84375,10.84375 5.98753,-1e-5 10.84179,-4.85622 10.84179,-10.84375 0,-5.98753 -4.85426,-10.84375 -10.84179,-10.84375 z m 0,0.18554 c 5.88764,10e-6 10.6582,4.77056 10.6582,10.65821 0,5.88764 -4.77056,10.6582 -10.6582,10.6582 -5.88765,0 -10.66016,-4.77055 -10.66016,-10.6582 0,-5.88765 4.77251,-10.65821 10.66016,-10.65821 z"
             style="font-style:normal;font-variant:normal;font-weight:bold;font-stretch:normal;font-family:'Ryman Eco';-inkscape-font-specification:'Ryman Eco';fill:#ffffff;stroke-width:0.26458332"
             id="path1466" />
        </g>
      </g>
    </mask>
    <linearGradient
       inkscape:collect="always"
       xlink:href="#linearGradient1004"
       id="linearGradient1558"
       gradientUnits="userSpaceOnUse"
       gradientTransform="matrix(0.99221561,0,0,0.99221561,93.802609,0.88334764)"
       x1="-201.04318"
       y1="289.96445"
       x2="-193.52557"
       y2="299.94125"
       spreadMethod="pad" />
    <linearGradient
       inkscape:collect="always"
       xlink:href="#linearGradient1004"
       id="linearGradient1560"
       gradientUnits="userSpaceOnUse"
       gradientTransform="matrix(0.99221561,0,0,0.99221561,93.802609,0.88334764)"
       x1="-201.04318"
       y1="289.96445"
       x2="-193.52557"
       y2="299.94125"
       spreadMethod="pad" />
    <linearGradient
       inkscape:collect="always"
       xlink:href="#linearGradient979"
       id="linearGradient1566"
       gradientUnits="userSpaceOnUse"
       gradientTransform="matrix(0.99221561,0,0,0.99221561,93.802609,0.88334764)"
       x1="-201.04318"
       y1="289.96445"
       x2="-193.52557"
       y2="299.94125"
       spreadMethod="pad" />
    <linearGradient
       inkscape:collect="always"
       xlink:href="#linearGradient1599"
       id="linearGradient1591"
       gradientUnits="userSpaceOnUse"
       gradientTransform="matrix(0.99221561,0,0,0.99221561,93.802609,0.88334764)"
       x1="-201.04318"
       y1="289.96445"
       x2="-193.52557"
       y2="299.94125"
       spreadMethod="pad" />
    <linearGradient
       inkscape:collect="always"
       xlink:href="#linearGradient1619"
       id="linearGradient1611"
       gradientUnits="userSpaceOnUse"
       gradientTransform="matrix(0.99221561,0,0,0.99221561,93.802609,0.88334764)"
       x1="-201.04318"
       y1="289.96445"
       x2="-193.52557"
       y2="299.94125"
       spreadMethod="pad" />
    <linearGradient
       inkscape:collect="always"
       xlink:href="#linearGradient922"
       id="linearGradient912"
       gradientUnits="userSpaceOnUse"
       gradientTransform="matrix(0.99221561,0,0,0.99221561,93.802609,0.88334764)"
       x1="-201.04318"
       y1="289.96445"
       x2="-193.52557"
       y2="299.94125"
       spreadMethod="pad" />
    <linearGradient
       inkscape:collect="always"
       xlink:href="#linearGradient922"
       id="linearGradient928"
       gradientUnits="userSpaceOnUse"
       gradientTransform="matrix(0.99221561,0,0,0.99221561,93.802609,0.88334764)"
       x1="-201.04318"
       y1="289.96445"
       x2="-193.52557"
       y2="299.94125"
       spreadMethod="pad" />
    <linearGradient
       inkscape:collect="always"
       xlink:href="#linearGradient922"
       id="linearGradient941"
       gradientUnits="userSpaceOnUse"
       gradientTransform="matrix(0.99221561,0,0,0.99221561,93.802609,0.88334764)"
       x1="-201.04318"
       y1="289.96445"
       x2="-193.52557"
       y2="299.94125"
       spreadMethod="pad" />
    <linearGradient
       inkscape:collect="always"
       xlink:href="#linearGradient971"
       id="linearGradient963"
       x1="132.35782"
       y1="236.27814"
       x2="148.62968"
       y2="250.69792"
       gradientUnits="userSpaceOnUse"
       gradientTransform="translate(-13.328385,18.686198)" />
    <clipPath
       clipPathUnits="userSpaceOnUse"
       id="clipPath980">
      <use
         x="0"
         y="0"
         xlink:href="#g976"
         id="use982"
         width="100%"
         height="100%"
         transform="translate(0.24383279,0.41791066)" />
    </clipPath>
    <mask
       maskUnits="userSpaceOnUse"
       id="mask1059">
      <g
         id="g1067"
         inkscape:label="Clip"
         transform="translate(-0.24383279,-0.41791067)">
        <circle
           style="opacity:1;vector-effect:none;fill:none;fill-opacity:1;fill-rule:evenodd;stroke:#ffffff;stroke-width:0.55093831;stroke-linecap:butt;stroke-linejoin:miter;stroke-miterlimit:4;stroke-dasharray:none;stroke-dashoffset:0;stroke-opacity:1"
           id="circle1061"
           cx="127.09922"
           cy="262.37268"
           r="11.493333" />
        <text
           xml:space="preserve"
           style="font-style:normal;font-variant:normal;font-weight:normal;font-stretch:normal;font-size:9.96711731px;line-height:1.25;font-family:'Latin Modern Roman';-inkscape-font-specification:'Latin Modern Roman, ';letter-spacing:0px;word-spacing:0px;fill:#ffffff;fill-opacity:1;stroke:none;stroke-width:0.24917793"
           x="116.85802"
           y="265.77643"
           id="text1065"><tspan
             sodipodi:role="line"
             id="tspan1063"
             x="116.85802"
             y="265.77643"
             style="fill:#ffffff;fill-opacity:1;stroke-width:0.24917793">OSC</tspan></text>
      </g>
    </mask>
    <linearGradient
       inkscape:collect="always"
       xlink:href="#linearGradient1103"
       id="linearGradient1077"
       gradientUnits="userSpaceOnUse"
       gradientTransform="matrix(1.0284649,0,0,1.0284649,2.3882828,47.701538)"
       x1="132.35782"
       y1="236.27814"
       x2="148.62968"
       y2="250.69792" />
    <mask
       maskUnits="userSpaceOnUse"
       id="mask1087">
      <g
         transform="translate(19.855146,35.818133)"
         inkscape:label="Clip"
         id="g1095">
        <circle
           r="11.493333"
           cy="262.37268"
           cx="127.09922"
           id="circle1089"
           style="opacity:1;vector-effect:none;fill:none;fill-opacity:1;fill-rule:evenodd;stroke:#ffffff;stroke-width:0.55093831;stroke-linecap:butt;stroke-linejoin:miter;stroke-miterlimit:4;stroke-dasharray:none;stroke-dashoffset:0;stroke-opacity:1" />
        <text
           id="text1093"
           y="265.77643"
           x="116.85802"
           style="font-style:normal;font-variant:normal;font-weight:normal;font-stretch:normal;font-size:9.96711731px;line-height:1.25;font-family:'Latin Modern Roman';-inkscape-font-specification:'Latin Modern Roman, ';letter-spacing:0px;word-spacing:0px;fill:#ffffff;fill-opacity:1;stroke:none;stroke-width:0.24917793"
           xml:space="preserve"><tspan
             style="fill:#ffffff;fill-opacity:1;stroke-width:0.24917793"
             y="265.77643"
             x="116.85802"
             id="tspan1091"
             sodipodi:role="line">OSC</tspan></text>
      </g>
    </mask>
  </defs>
  <sodipodi:namedview
     id="base"
     pagecolor="#000000"
     bordercolor="#666666"
     borderopacity="1.0"
     inkscape:pageopacity="0.63529412"
     inkscape:pageshadow="2"
     inkscape:zoom="1.4142136"
     inkscape:cx="202.54231"
     inkscape:cy="65.866262"
     inkscape:document-units="mm"
     inkscape:current-layer="layer1"
     showgrid="false"
     inkscape:pagecheckerboard="true"
     inkscape:window-width="2560"
     inkscape:window-height="1408"
     inkscape:window-x="0"
     inkscape:window-y="32"
     inkscape:window-maximized="1" />
  <metadata
     id="metadata5">
    <rdf:RDF>
      <cc:Work
         rdf:about="">
        <dc:format>image/svg+xml</dc:format>
        <dc:type
           rdf:resource="http://purl.org/dc/dcmitype/StillImage" />
        <dc:title />
      </cc:Work>
    </rdf:RDF>
  </metadata>
  <g
     inkscape:label="Layer 1"
     inkscape:groupmode="layer"
     id="layer1">
    <rect
       style="opacity:1;vector-effect:none;fill:#ffffff;fill-opacity:1;fill-rule:evenodd;stroke:none;stroke-width:0.21923667;stroke-linecap:butt;stroke-linejoin:miter;stroke-miterlimit:4;stroke-dasharray:none;stroke-dashoffset:0;stroke-opacity:1"
       id="rect914"
       width="28.37912"
       height="28.37912"
       x="44.05452"
       y="251.55725" />
    <rect
       style="opacity:1;vector-effect:none;fill:#ffffff;fill-opacity:1;fill-rule:evenodd;stroke:none;stroke-width:0.58499998;stroke-linecap:butt;stroke-linejoin:miter;stroke-miterlimit:4;stroke-dasharray:none;stroke-dashoffset:0;stroke-opacity:1"
       id="rect1071"
       width="169.87651"
       height="107.95016"
       x="-229.93198"
       y="249.1053" />
    <circle
       transform="translate(159.91861,-28.662537)"
       mask="url(#mask961)"
       cx="-101.54224"
       cy="293.6156"
       r="10.839601"
       style="opacity:1;vector-effect:none;fill:url(#linearGradient912);fill-opacity:1;stroke:none;stroke-width:0.38800114;stroke-linecap:butt;stroke-linejoin:miter;stroke-miterlimit:4;stroke-dasharray:none;stroke-dashoffset:0;stroke-opacity:1"
       id="circle908" />
    <rect
       style="opacity:1;vector-effect:none;fill:#ffffff;fill-opacity:1;fill-rule:evenodd;stroke:none;stroke-width:0.35781556;stroke-linecap:butt;stroke-linejoin:miter;stroke-miterlimit:4;stroke-dasharray:none;stroke-dashoffset:0;stroke-opacity:1"
       id="rect1069"
       width="33.538494"
       height="63.96558"
       x="112.78234"
       y="250.81439" />
    <circle
       style="opacity:1;vector-effect:none;fill:url(#linearGradient963);fill-opacity:1;fill-rule:evenodd;stroke:none;stroke-width:0.58499998;stroke-linecap:butt;stroke-linejoin:miter;stroke-miterlimit:4;stroke-dasharray:none;stroke-dashoffset:0;stroke-opacity:1"
       id="path943"
       cx="127.2315"
       cy="262.24039"
       r="12.964583"
       mask="url(#mask1059)"
       transform="translate(1.2160764,2.8998744)" />
    <rect
       y="280.74973"
       x="-55.721066"
       height="42.45203"
       width="67.719742"
       id="rect1623"
       style="opacity:1;vector-effect:none;fill:#ffffff;fill-opacity:1;fill-rule:evenodd;stroke:#000000;stroke-width:0.26474047;stroke-linecap:butt;stroke-linejoin:miter;stroke-miterlimit:4;stroke-dasharray:none;stroke-dashoffset:0;stroke-opacity:1" />
    <rect
       style="opacity:1;vector-effect:none;fill:#ffffff;fill-opacity:1;fill-rule:evenodd;stroke:#000000;stroke-width:0.26474047;stroke-linecap:butt;stroke-linejoin:miter;stroke-miterlimit:4;stroke-dasharray:none;stroke-dashoffset:0;stroke-opacity:1"
       id="rect1621"
       width="67.719742"
       height="42.45203"
       x="-55.721066"
       y="238.7654" />
    <circle
       r="10.755523"
       cy="264.2197"
       cx="-9.6984854"
       id="circle1564"
       style="opacity:1;vector-effect:none;fill:#ffffff;fill-opacity:1;fill-rule:evenodd;stroke:#000000;stroke-width:0.18443199;stroke-linecap:butt;stroke-linejoin:miter;stroke-miterlimit:4;stroke-dasharray:none;stroke-dashoffset:0;stroke-opacity:1" />
    <circle
       r="10.755523"
       cy="302.02914"
       cx="-39.291786"
       id="circle992"
       style="opacity:1;vector-effect:none;fill:#010034;fill-opacity:0.99099097;fill-rule:evenodd;stroke:#000000;stroke-width:0.18443199;stroke-linecap:butt;stroke-linejoin:miter;stroke-miterlimit:4;stroke-dasharray:none;stroke-dashoffset:0;stroke-opacity:1" />
    <circle
       id="circle903"
       style="opacity:1;vector-effect:none;fill:url(#linearGradient921);fill-opacity:1;stroke:none;stroke-width:0.38800114;stroke-linecap:butt;stroke-linejoin:miter;stroke-miterlimit:4;stroke-dasharray:none;stroke-dashoffset:0;stroke-opacity:1"
       r="10.839601"
       cy="293.6156"
       cx="-101.54224"
       mask="url(#mask961)"
       transform="translate(9.5159946,-11.378713)" />
    <circle
       style="opacity:1;vector-effect:none;fill:#1d1d1d;fill-opacity:1;stroke:none;stroke-width:0.40061203;stroke-linecap:butt;stroke-linejoin:miter;stroke-miterlimit:4;stroke-dasharray:none;stroke-dashoffset:0;stroke-opacity:1"
       id="path821"
       cx="-196.87743"
       cy="295.02887"
       r="11.191911" />
    <circle
       r="10.924642"
       cy="295.02887"
       cx="-196.87743"
       id="circle823"
       style="opacity:1;vector-effect:none;fill:url(#linearGradient831);fill-opacity:1;stroke:none;stroke-width:0.39104518;stroke-linecap:butt;stroke-linejoin:miter;stroke-miterlimit:4;stroke-dasharray:none;stroke-dashoffset:0;stroke-opacity:1" />
    <text
       xml:space="preserve"
       style="font-style:normal;font-variant:normal;font-weight:normal;font-stretch:normal;font-size:10.58333302px;line-height:1.25;font-family:'Latin Modern Roman';-inkscape-font-specification:'Latin Modern Roman, ';letter-spacing:0px;word-spacing:0px;fill:#000000;fill-opacity:1;stroke:none;stroke-width:0.26458332"
       x="-207.00566"
       y="298.66425"
       id="text817"><tspan
         sodipodi:role="line"
         id="tspan815"
         x="-207.00566"
         y="298.66425"
         style="font-style:normal;font-variant:normal;font-weight:normal;font-stretch:normal;font-family:'Ryman Eco';-inkscape-font-specification:'Ryman Eco';stroke-width:0.26458332">OSC</tspan></text>
    <circle
       style="opacity:1;vector-effect:none;fill:url(#linearGradient847);fill-opacity:1;stroke:none;stroke-width:0.39104518;stroke-linecap:butt;stroke-linejoin:miter;stroke-miterlimit:4;stroke-dasharray:none;stroke-dashoffset:0;stroke-opacity:1"
       id="circle841"
       cx="-164.20372"
       cy="295.02887"
       r="10.924642" />
    <text
       id="text845"
       y="298.66425"
       x="-174.33195"
       style="font-style:normal;font-variant:normal;font-weight:normal;font-stretch:normal;font-size:10.58333302px;line-height:1.25;font-family:'Latin Modern Roman';-inkscape-font-specification:'Latin Modern Roman, ';letter-spacing:0px;word-spacing:0px;fill:#000000;fill-opacity:1;stroke:none;stroke-width:0.26458332"
       xml:space="preserve"><tspan
         style="font-style:normal;font-variant:normal;font-weight:bold;font-stretch:normal;font-family:'Ryman Eco';-inkscape-font-specification:'Ryman Eco';stroke-width:0.26458332"
         y="298.66425"
         x="-174.33195"
         id="tspan843"
         sodipodi:role="line">OSC</tspan></text>
    <circle
       r="10.750956"
       cy="295.02887"
       cx="-164.20372"
       id="circle839"
       style="opacity:1;vector-effect:none;fill:none;fill-opacity:1;stroke:#000000;stroke-width:0.38482815;stroke-linecap:butt;stroke-linejoin:miter;stroke-miterlimit:4;stroke-dasharray:none;stroke-dashoffset:0;stroke-opacity:1" />
    <ellipse
       cy="295.02887"
       cx="-135.60588"
       id="circle849"
       style="opacity:1;vector-effect:none;fill:url(#linearGradient857);fill-opacity:1;stroke:none;stroke-width:0.39104518;stroke-linecap:butt;stroke-linejoin:miter;stroke-miterlimit:4;stroke-dasharray:none;stroke-dashoffset:0;stroke-opacity:1"
       r="10.924642" />
    <g
       aria-label="OSC"
       style="font-style:normal;font-variant:normal;font-weight:normal;font-stretch:normal;font-size:10.58333302px;line-height:1.25;font-family:'Latin Modern Roman';-inkscape-font-specification:'Latin Modern Roman, ';letter-spacing:0px;word-spacing:0px;fill:#000000;fill-opacity:1;stroke:none;stroke-width:0.26458332"
       id="text853">
      <path
         d="m -139.13012,295.05533 c 0,-1.27 -0.52916,-2.57175 -1.59808,-3.15383 0.94192,0.71966 1.34408,2.06375 1.34408,3.10091 0,1.74625 -0.83608,3.20675 -2.40241,3.20675 -1.54517,0 -2.37067,-1.47108 -2.37067,-3.19616 0,-1.12184 0.34925,-2.20134 1.0795,-2.83634 -0.8255,0.39159 -1.34408,1.51342 -1.34408,2.89984 0,1.95791 1.05833,3.34433 2.63525,3.34433 1.64041,0 2.65641,-1.40758 2.65641,-3.3655 z m -2.86808,-3.79942 c -2.00025,0 -3.31258,1.48167 -3.31258,3.7465 0,2.30717 1.35466,3.79942 3.31258,3.79942 2.02142,0 3.32317,-1.48167 3.32317,-3.79942 0,-2.2225 -1.3335,-3.7465 -3.32317,-3.7465 z m 0,7.33425 c -1.98967,0 -3.03742,-1.64041 -3.03742,-3.58775 0,-1.82033 0.94192,-3.53483 3.03742,-3.53483 2.0955,0 3.048,1.76742 3.048,3.54542 0,1.9685 -1.02658,3.57716 -3.048,3.57716 z m -2.8575,-3.66183 c 0,1.28058 0.47625,2.62467 1.59808,3.22792 -0.93133,-0.67734 -1.34408,-2.00025 -1.34408,-3.16442 0,-1.73567 0.86783,-3.14325 2.40242,-3.14325 1.53458,0 2.37066,1.44992 2.37066,3.12208 0,1.06892 -0.28575,2.2225 -1.09008,2.91042 0.91017,-0.42333 1.35467,-1.651 1.35467,-2.96333 0,-1.83092 -1.02659,-3.28084 -2.63525,-3.28084 -1.57692,0 -2.65642,1.34409 -2.65642,3.29142 z"
         style="font-style:normal;font-variant:normal;font-weight:bold;font-stretch:normal;font-family:'Ryman Eco';-inkscape-font-specification:'Ryman Eco';stroke-width:0.26458332"
         id="path869" />
      <path
         d="m -133.43629,293.743 c -0.127,-1.0795 -0.77259,-2.10609 -2.159,-2.10609 -0.85725,0 -1.70392,0.4445 -1.70392,1.524 0,1.22767 1.11125,1.48167 2.032,1.78859 0.93133,0.29633 1.79917,0.67733 1.79917,1.75683 0,0.89958 -0.59267,1.50283 -1.67217,1.50283 -1.27,0 -2.00025,-0.83608 -2.159,-2.032 l -0.13758,0.13759 c 0.14816,1.11125 0.889,2.10608 2.3495,2.10608 1.25941,0 1.87325,-0.762 1.87325,-1.73567 0,-1.21708 -0.9525,-1.62983 -1.92617,-1.92616 -1.00542,-0.3175 -1.905,-0.60325 -1.905,-1.62984 0,-0.9525 0.77258,-1.28058 1.47108,-1.28058 1.19592,0 1.85209,0.84667 1.98967,2.04258 z m -1.651,0.84666 c 1.02658,0.27517 2.0955,0.77259 2.0955,2.04259 0,0.97366 -0.635,1.95791 -2.14842,1.95791 -1.13242,0 -1.92617,-0.53975 -2.2225,-1.48166 h -0.0212 v 1.55575 h 0.254 l -0.0741,-0.78317 h 0.0212 c 0.26458,0.49742 0.87841,0.92075 1.97908,0.92075 1.59808,0 2.46592,-0.889 2.46592,-2.18017 0,-1.4605 -1.10067,-1.89441 -2.19075,-2.2225 -1.06892,-0.3175 -1.68275,-0.508 -1.68275,-1.34408 0,-0.30692 0.0952,-0.64558 0.23283,-0.85725 -0.29633,0.1905 -0.47625,0.508 -0.47625,0.91017 0,0.99483 1.05833,1.29116 1.76742,1.48166 z m 1.16416,2.16959 c 0,0.32808 -0.0953,0.83608 -0.35983,1.09008 0.37042,-0.254 0.61383,-0.6985 0.61383,-1.16417 0,-0.92075 -0.87841,-1.31233 -1.778,-1.60866 -0.86783,-0.27517 -2.04258,-0.5715 -2.04258,-1.86267 0,-1.02658 0.71967,-1.74625 1.89442,-1.74625 1.0795,0 1.80975,0.53975 2.07433,1.48167 l 0.0317,-0.0106 v -1.5875 h -0.24342 l 0.0741,0.8255 h -0.0212 c -0.24342,-0.46566 -0.78317,-0.92075 -1.86267,-0.92075 -1.24883,0 -2.20133,0.65617 -2.20133,1.9685 0,1.3335 0.98425,1.67217 2.18017,2.08492 1.06891,0.39158 1.64041,0.64558 1.64041,1.44992 z m -3.84175,-0.0741 v 1.97909 h 0.21167 v -2.23309 z m 4.65667,-3.31258 v -2.02142 h -0.21167 v 2.27542 z"
         style="font-style:normal;font-variant:normal;font-weight:bold;font-stretch:normal;font-family:'Ryman Eco';-inkscape-font-specification:'Ryman Eco';stroke-width:0.26458332"
         id="path871" />
      <path
         d="m -128.69498,291.25591 c -1.89442,0 -3.18558,1.48167 -3.18558,3.73592 0,2.33892 1.35466,3.81 3.302,3.81 1.29116,0 1.92616,-0.55033 2.67758,-1.397 -0.0318,-0.0212 -0.11642,-0.127 -0.14817,-0.15875 -0.8255,0.96308 -1.397,1.34408 -2.51883,1.34408 -1.98967,0 -3.03742,-1.62983 -3.03742,-3.58775 0,-1.80975 0.94192,-3.53483 2.86809,-3.53483 1.10066,0 1.905,0.56092 2.18016,1.48167 l 0.0317,-0.0106 v -1.5875 h -0.254 l 0.0741,0.86784 c -0.40217,-0.60325 -1.05834,-0.96309 -1.98967,-0.96309 z m 2.18017,2.52942 c -0.14817,-1.13242 -0.83609,-2.14842 -2.26484,-2.14842 -1.651,0 -2.63525,1.3335 -2.63525,3.302 0,1.27 0.45509,2.6035 1.57692,3.21734 -0.91017,-0.68792 -1.34408,-2.00025 -1.34408,-3.15384 0,-1.74625 0.8255,-3.15383 2.38125,-3.15383 1.34408,0 1.9685,0.87842 2.13783,2.08492 z m -3.22792,-1.60867 c -0.78317,0.41275 -1.24883,1.57692 -1.24883,2.88925 0,1.92617 1.03716,3.35492 2.54,3.35492 1.04775,0 1.60866,-0.62442 2.24366,-1.32292 -0.0318,-0.0212 -0.127,-0.127 -0.15875,-0.15875 -0.59266,0.71967 -1.04775,1.27 -2.032,1.27 -1.47108,0 -2.32833,-1.4605 -2.32833,-3.21733 0,-1.10067 0.3175,-2.18017 0.98425,-2.81517 z m 3.59833,1.19592 v -2.02142 h -0.21166 v 2.27542 z"
         style="font-style:normal;font-variant:normal;font-weight:bold;font-stretch:normal;font-family:'Ryman Eco';-inkscape-font-specification:'Ryman Eco';stroke-width:0.26458332"
         id="path873" />
    </g>
    <path
       style="opacity:1;vector-effect:none;fill:none;fill-opacity:1;stroke:#000000;stroke-width:0.38482815;stroke-linecap:butt;stroke-linejoin:miter;stroke-miterlimit:4;stroke-dasharray:none;stroke-dashoffset:0;stroke-opacity:1"
       d="m -124.85493,295.02887 a 10.750956,10.750956 0 0 1 -10.75095,10.75096 10.750956,10.750956 0 0 1 -10.75096,-10.75096 10.750956,10.750956 0 0 1 10.75096,-10.75096 10.750956,10.750956 0 0 1 10.75095,10.75096 z"
       id="circle855" />
    <circle
       r="10.924642"
       style="opacity:1;vector-effect:none;fill:url(#linearGradient857);fill-opacity:1;stroke:none;stroke-width:0.39104518;stroke-linecap:butt;stroke-linejoin:miter;stroke-miterlimit:4;stroke-dasharray:none;stroke-dashoffset:0;stroke-opacity:1"
       id="ellipse877"
       cx="-135.60588"
       cy="295.02887" />
    <g
       id="g885"
       style="font-style:normal;font-variant:normal;font-weight:normal;font-stretch:normal;font-size:10.58333302px;line-height:1.25;font-family:'Latin Modern Roman';-inkscape-font-specification:'Latin Modern Roman, ';letter-spacing:0px;word-spacing:0px;fill:#000000;fill-opacity:1;stroke:none;stroke-width:0.26458332"
       aria-label="OSC">
      <path
         id="path879"
         style="font-style:normal;font-variant:normal;font-weight:bold;font-stretch:normal;font-family:'Ryman Eco';-inkscape-font-specification:'Ryman Eco';stroke-width:0.26458332"
         d="m -139.13012,295.05533 c 0,-1.27 -0.52916,-2.57175 -1.59808,-3.15383 0.94192,0.71966 1.34408,2.06375 1.34408,3.10091 0,1.74625 -0.83608,3.20675 -2.40241,3.20675 -1.54517,0 -2.37067,-1.47108 -2.37067,-3.19616 0,-1.12184 0.34925,-2.20134 1.0795,-2.83634 -0.8255,0.39159 -1.34408,1.51342 -1.34408,2.89984 0,1.95791 1.05833,3.34433 2.63525,3.34433 1.64041,0 2.65641,-1.40758 2.65641,-3.3655 z m -2.86808,-3.79942 c -2.00025,0 -3.31258,1.48167 -3.31258,3.7465 0,2.30717 1.35466,3.79942 3.31258,3.79942 2.02142,0 3.32317,-1.48167 3.32317,-3.79942 0,-2.2225 -1.3335,-3.7465 -3.32317,-3.7465 z m 0,7.33425 c -1.98967,0 -3.03742,-1.64041 -3.03742,-3.58775 0,-1.82033 0.94192,-3.53483 3.03742,-3.53483 2.0955,0 3.048,1.76742 3.048,3.54542 0,1.9685 -1.02658,3.57716 -3.048,3.57716 z m -2.8575,-3.66183 c 0,1.28058 0.47625,2.62467 1.59808,3.22792 -0.93133,-0.67734 -1.34408,-2.00025 -1.34408,-3.16442 0,-1.73567 0.86783,-3.14325 2.40242,-3.14325 1.53458,0 2.37066,1.44992 2.37066,3.12208 0,1.06892 -0.28575,2.2225 -1.09008,2.91042 0.91017,-0.42333 1.35467,-1.651 1.35467,-2.96333 0,-1.83092 -1.02659,-3.28084 -2.63525,-3.28084 -1.57692,0 -2.65642,1.34409 -2.65642,3.29142 z" />
      <path
         id="path881"
         style="font-style:normal;font-variant:normal;font-weight:bold;font-stretch:normal;font-family:'Ryman Eco';-inkscape-font-specification:'Ryman Eco';stroke-width:0.26458332"
         d="m -133.43629,293.743 c -0.127,-1.0795 -0.77259,-2.10609 -2.159,-2.10609 -0.85725,0 -1.70392,0.4445 -1.70392,1.524 0,1.22767 1.11125,1.48167 2.032,1.78859 0.93133,0.29633 1.79917,0.67733 1.79917,1.75683 0,0.89958 -0.59267,1.50283 -1.67217,1.50283 -1.27,0 -2.00025,-0.83608 -2.159,-2.032 l -0.13758,0.13759 c 0.14816,1.11125 0.889,2.10608 2.3495,2.10608 1.25941,0 1.87325,-0.762 1.87325,-1.73567 0,-1.21708 -0.9525,-1.62983 -1.92617,-1.92616 -1.00542,-0.3175 -1.905,-0.60325 -1.905,-1.62984 0,-0.9525 0.77258,-1.28058 1.47108,-1.28058 1.19592,0 1.85209,0.84667 1.98967,2.04258 z m -1.651,0.84666 c 1.02658,0.27517 2.0955,0.77259 2.0955,2.04259 0,0.97366 -0.635,1.95791 -2.14842,1.95791 -1.13242,0 -1.92617,-0.53975 -2.2225,-1.48166 h -0.0212 v 1.55575 h 0.254 l -0.0741,-0.78317 h 0.0212 c 0.26458,0.49742 0.87841,0.92075 1.97908,0.92075 1.59808,0 2.46592,-0.889 2.46592,-2.18017 0,-1.4605 -1.10067,-1.89441 -2.19075,-2.2225 -1.06892,-0.3175 -1.68275,-0.508 -1.68275,-1.34408 0,-0.30692 0.0952,-0.64558 0.23283,-0.85725 -0.29633,0.1905 -0.47625,0.508 -0.47625,0.91017 0,0.99483 1.05833,1.29116 1.76742,1.48166 z m 1.16416,2.16959 c 0,0.32808 -0.0953,0.83608 -0.35983,1.09008 0.37042,-0.254 0.61383,-0.6985 0.61383,-1.16417 0,-0.92075 -0.87841,-1.31233 -1.778,-1.60866 -0.86783,-0.27517 -2.04258,-0.5715 -2.04258,-1.86267 0,-1.02658 0.71967,-1.74625 1.89442,-1.74625 1.0795,0 1.80975,0.53975 2.07433,1.48167 l 0.0317,-0.0106 v -1.5875 h -0.24342 l 0.0741,0.8255 h -0.0212 c -0.24342,-0.46566 -0.78317,-0.92075 -1.86267,-0.92075 -1.24883,0 -2.20133,0.65617 -2.20133,1.9685 0,1.3335 0.98425,1.67217 2.18017,2.08492 1.06891,0.39158 1.64041,0.64558 1.64041,1.44992 z m -3.84175,-0.0741 v 1.97909 h 0.21167 v -2.23309 z m 4.65667,-3.31258 v -2.02142 h -0.21167 v 2.27542 z" />
      <path
         id="path883"
         style="font-style:normal;font-variant:normal;font-weight:bold;font-stretch:normal;font-family:'Ryman Eco';-inkscape-font-specification:'Ryman Eco';stroke-width:0.26458332"
         d="m -128.69498,291.25591 c -1.89442,0 -3.18558,1.48167 -3.18558,3.73592 0,2.33892 1.35466,3.81 3.302,3.81 1.29116,0 1.92616,-0.55033 2.67758,-1.397 -0.0318,-0.0212 -0.11642,-0.127 -0.14817,-0.15875 -0.8255,0.96308 -1.397,1.34408 -2.51883,1.34408 -1.98967,0 -3.03742,-1.62983 -3.03742,-3.58775 0,-1.80975 0.94192,-3.53483 2.86809,-3.53483 1.10066,0 1.905,0.56092 2.18016,1.48167 l 0.0317,-0.0106 v -1.5875 h -0.254 l 0.0741,0.86784 c -0.40217,-0.60325 -1.05834,-0.96309 -1.98967,-0.96309 z m 2.18017,2.52942 c -0.14817,-1.13242 -0.83609,-2.14842 -2.26484,-2.14842 -1.651,0 -2.63525,1.3335 -2.63525,3.302 0,1.27 0.45509,2.6035 1.57692,3.21734 -0.91017,-0.68792 -1.34408,-2.00025 -1.34408,-3.15384 0,-1.74625 0.8255,-3.15383 2.38125,-3.15383 1.34408,0 1.9685,0.87842 2.13783,2.08492 z m -3.22792,-1.60867 c -0.78317,0.41275 -1.24883,1.57692 -1.24883,2.88925 0,1.92617 1.03716,3.35492 2.54,3.35492 1.04775,0 1.60866,-0.62442 2.24366,-1.32292 -0.0318,-0.0212 -0.127,-0.127 -0.15875,-0.15875 -0.59266,0.71967 -1.04775,1.27 -2.032,1.27 -1.47108,0 -2.32833,-1.4605 -2.32833,-3.21733 0,-1.10067 0.3175,-2.18017 0.98425,-2.81517 z m 3.59833,1.19592 v -2.02142 h -0.21166 v 2.27542 z" />
    </g>
    <path
       id="path887"
       d="m -124.85493,295.02887 a 10.750956,10.750956 0 0 1 -10.75095,10.75096 10.750956,10.750956 0 0 1 -10.75096,-10.75096 10.750956,10.750956 0 0 1 10.75096,-10.75096 10.750956,10.750956 0 0 1 10.75095,10.75096 z"
       style="opacity:1;vector-effect:none;fill:none;fill-opacity:1;stroke:#000000;stroke-width:0.38482815;stroke-linecap:butt;stroke-linejoin:miter;stroke-miterlimit:4;stroke-dasharray:none;stroke-dashoffset:0;stroke-opacity:1" />
    <circle
       transform="translate(91.843753,-29.395892)"
       mask="url(#mask961)"
       cx="-101.54224"
       cy="293.6156"
       r="10.839601"
       style="opacity:1;vector-effect:none;fill:url(#linearGradient1566);fill-opacity:1;stroke:none;stroke-width:0.38800114;stroke-linecap:butt;stroke-linejoin:miter;stroke-miterlimit:4;stroke-dasharray:none;stroke-dashoffset:0;stroke-opacity:1"
       id="circle971" />
    <circle
       transform="translate(62.25045,8.413562)"
       mask="url(#mask961)"
       cx="-101.54224"
       cy="293.6156"
       r="10.839601"
       style="opacity:1;vector-effect:none;fill:url(#linearGradient1156);fill-opacity:1;stroke:none;stroke-width:0.38800114;stroke-linecap:butt;stroke-linejoin:miter;stroke-miterlimit:4;stroke-dasharray:none;stroke-dashoffset:0;stroke-opacity:1"
       id="circle1010" />
    <circle
       style="opacity:1;vector-effect:none;fill:#010034;fill-opacity:0.99099097;fill-rule:evenodd;stroke:#000000;stroke-width:0.18443199;stroke-linecap:butt;stroke-linejoin:miter;stroke-miterlimit:4;stroke-dasharray:none;stroke-dashoffset:0;stroke-opacity:1"
       id="circle1552"
       cx="-72.380585"
       cy="318.12881"
       r="10.755523" />
    <circle
       id="circle1554"
       style="opacity:1;vector-effect:none;fill:url(#linearGradient1558);fill-opacity:1;stroke:none;stroke-width:0.38800114;stroke-linecap:butt;stroke-linejoin:miter;stroke-miterlimit:4;stroke-dasharray:none;stroke-dashoffset:0;stroke-opacity:1"
       r="10.839601"
       cy="293.6156"
       cx="-101.54224"
       mask="url(#mask961)"
       transform="translate(29.161652,24.513182)" />
    <circle
       transform="translate(29.161652,24.513182)"
       mask="url(#mask1464)"
       cx="-101.54224"
       cy="293.6156"
       r="10.839601"
       style="opacity:1;vector-effect:none;fill:url(#linearGradient1560);fill-opacity:1;stroke:none;stroke-width:0.38800114;stroke-linecap:butt;stroke-linejoin:miter;stroke-miterlimit:4;stroke-dasharray:none;stroke-dashoffset:0;stroke-opacity:1"
       id="circle1556" />
    <circle
       style="opacity:1;vector-effect:none;fill:#010034;fill-opacity:0.99099097;fill-rule:evenodd;stroke:#000000;stroke-width:0.18443199;stroke-linecap:butt;stroke-linejoin:miter;stroke-miterlimit:4;stroke-dasharray:none;stroke-dashoffset:0;stroke-opacity:1"
       id="circle1587"
       cx="-8.088069"
       cy="302.02914"
       r="10.755523" />
    <circle
       id="circle1589"
       style="opacity:1;vector-effect:none;fill:url(#linearGradient1591);fill-opacity:1;stroke:none;stroke-width:0.38800114;stroke-linecap:butt;stroke-linejoin:miter;stroke-miterlimit:4;stroke-dasharray:none;stroke-dashoffset:0;stroke-opacity:1"
       r="10.839601"
       cy="293.6156"
       cx="-101.54224"
       mask="url(#mask961)"
       transform="translate(93.454167,8.413562)" />
    <circle
       style="opacity:1;vector-effect:none;fill:#ffffff;fill-opacity:0.990991;fill-rule:evenodd;stroke:#000000;stroke-width:0.18443199;stroke-linecap:butt;stroke-linejoin:miter;stroke-miterlimit:4;stroke-dasharray:none;stroke-dashoffset:0;stroke-opacity:1"
       id="circle1607"
       cx="-41.117756"
       cy="263.62439"
       r="10.755523" />
    <circle
       id="circle1609"
       style="opacity:1;vector-effect:none;fill:url(#linearGradient1611);fill-opacity:1;stroke:none;stroke-width:0.38800114;stroke-linecap:butt;stroke-linejoin:miter;stroke-miterlimit:4;stroke-dasharray:none;stroke-dashoffset:0;stroke-opacity:1"
       r="10.839601"
       cy="293.6156"
       cx="-101.54224"
       mask="url(#mask961)"
       transform="translate(60.424482,-29.991204)" />
    <rect
       y="250.7635"
       x="82.727074"
       height="28.37912"
       width="28.37912"
       id="rect924"
       style="opacity:1;vector-effect:none;fill:#ffffff;fill-opacity:1;fill-rule:evenodd;stroke:none;stroke-width:0.21923667;stroke-linecap:butt;stroke-linejoin:miter;stroke-miterlimit:4;stroke-dasharray:none;stroke-dashoffset:0;stroke-opacity:1"
       inkscape:export-xdpi="966.62622"
       inkscape:export-ydpi="966.62622" />
    <circle
       id="circle926"
       style="opacity:1;vector-effect:none;fill:url(#linearGradient928);fill-opacity:1;stroke:none;stroke-width:0.38800114;stroke-linecap:butt;stroke-linejoin:miter;stroke-miterlimit:4;stroke-dasharray:none;stroke-dashoffset:0;stroke-opacity:1"
       r="10.839601"
       cy="293.6156"
       cx="-101.54224"
       mask="url(#mask961)"
       transform="translate(198.45887,-28.662537)"
       inkscape:export-xdpi="966.62622"
       inkscape:export-ydpi="966.62622" />
    <circle
       r="12.112097"
       cy="298.89438"
       cx="130.05388"
       id="circle1073"
       style="opacity:1;vector-effect:none;fill:#010034;fill-opacity:0.99099097;fill-rule:evenodd;stroke:none;stroke-width:0.20769404;stroke-linecap:butt;stroke-linejoin:miter;stroke-miterlimit:4;stroke-dasharray:none;stroke-dashoffset:0;stroke-opacity:1" />
    <circle
       mask="url(#mask1087)"
       r="11.794305"
       cy="298.18851"
       cx="146.94919"
       id="circle1075"
       style="opacity:1;vector-effect:none;fill:url(#linearGradient1077);fill-opacity:1;fill-rule:evenodd;stroke:none;stroke-width:0.60165203;stroke-linecap:butt;stroke-linejoin:miter;stroke-miterlimit:4;stroke-dasharray:none;stroke-dashoffset:0;stroke-opacity:1"
       transform="translate(-16.895313,0.70585675)" />
  </g>
</svg>
